<?xml version='1.0' encoding='utf-8'?>
<svg xmlns="http://www.w3.org/2000/svg" width="3e3" height="3e3" version="1.1" viewBox="0 0 793.75 793.75"> <g transform="translate(0 496.75)"> <path d="m368.42 99.779c-152.11-5.6022-284.37-55.447-339.08-127.79-37.449-49.514-34.733-104.27 7.5832-152.93 12.758-14.668 29.891-29.192 49.456-41.925 64.523-41.992 159.4-69.27 263.13-75.649 30.77-1.8923 65.629-1.8498 96.308 0.11718 124.18 7.9618 233.1 45.181 294.34 100.58 38.095 34.463 55.305 73.949 49.354 113.23-4.448 29.362-21.68 58.02-50.267 83.595-41.47 37.101-105.89 66.801-182.17 83.98-42.583 9.5909-85.49 15-133.33 16.808-12.868 0.48636-41.896 0.47776-55.313-0.01641z" fill="#726f6b" stroke-width=".26458"/> <path d="m348.45 98.189c-5.166-0.33843-12.131-0.85873-15.478-1.1562-3.347-0.2975-8.2881-0.72385-10.98-0.94745-29.629-2.461-70.769-9.5832-102.53-17.749-40.841-10.502-76.335-23.992-108.48-41.228-16.305-8.7429-35.056-20.947-44.686-29.083-1.7618-1.4885-4.1557-3.4658-5.3198-4.3939-17.451-13.913-33.26-32.388-43.088-50.356-4.8406-8.8494-8.8788-19.096-11.18-28.367-3.1282-12.606-3.8852-26.807-2.0943-39.291 0.71502-4.9841 2.799-14.035 3.8382-16.669 0.31575-0.80037 1.0863-2.9435 1.7124-4.7625 3.84-11.157 11.283-24.53 19.971-35.884l3.6192-4.7295 0.99769 0.0607c1.2242 0.0745 2.328-0.46985 5.0722-2.5015 5.0309-3.7245 6.4161-4.4932 7.2714-4.0355 1.4531 0.77766 1.1194 2.7194-1.0915 6.3521-5.2889 8.6899-6.6667 11.394-7.2813 14.289-0.48932 2.3048-0.37436 4.251 0.4214 7.1344 0.30121 1.0914 0.85602 3.4727 1.2329 5.2917 0.97999 4.7296 1.4112 5.434 4.9875 8.1484 2.4491 1.8588 4.1921 3.8987 7.2801 8.5204 1.2154 1.819 3.5432 4.9742 5.173 7.0115 2.2292 2.7866 3.3383 4.4579 4.4774 6.7469 1.6821 3.3802 5.5251 9.8719 6.9961 11.818 1.3016 1.7221 4.1579 4.0702 6.3063 5.1841 3.403 1.7645 6.8349 2.5713 10.953 2.5748 5.5293 0.0048 9.8698-1.7181 13.547-5.3776 2.9092-2.8949 5.2977-6.2402 11.058-15.487 1.1863-1.9046 3.5281-3.6934 9.3281-7.1254 7.4365-4.4003 10.056-7.3603 9.5814-10.825-0.5172-3.7734-4.8382-8.6764-11.125-12.623-2.9405-1.8461-5.0744-2.719-10.689-4.3724-7.069-2.0817-10.084-3.8589-12.051-7.1034-0.50683-0.8359-1.0669-2.2471-1.2554-3.163-0.31232-1.5179-0.29169-1.819 0.25099-3.6635 0.64655-2.1976 1.685-3.8699 5.5033-8.8621 1.7384-2.2728 3.5103-4.129 6.8436-7.1686 8.8646-8.0838 10.233-10.246 8.5586-13.521-0.66012-1.2911-1.2749-3.4426-1.2794-4.4775-2e-3 -0.39473 0.25329-1.4031 0.56671-2.2408 0.72804-1.9458 2.406-3.6372 5.9321-5.9793 5.796-3.8499 12.286-6.141 21.544-7.6052 4.117-0.65114 9.2572-1.9211 17.098-4.2243 10.274-3.0181 14.519-4.5115 24.772-8.7161 7.8657-3.2255 10.895-4.2405 15.331-5.1368 6.3208-1.277 11.593-3.4912 19.683-8.267 6.1298-3.6186 8.4091-4.7173 13.17-6.3486 8.7108-2.9846 16.905-4.3416 26.229-4.3435 8.6554-2e-3 14.312-0.53378 26.592-2.5013 9.4474-1.5136 14.216-2.1785 18.109-2.525 4.4467-0.39578 13.455-0.34492 20.917 0.11811 17.183 1.0662 29.267 1.1434 40.481 0.25895 6.303-0.49712 13.291-1.4901 16.677-2.3699 3.3444-0.86895 7.187-2.7027 8.2858-3.9542 1.0288-1.1717 1.1177-2.4412 0.23897-3.4122-1.1708-1.2939-4.9597-2.9995-10.385-4.6748-9.2818-2.8663-10.157-3.6381-7.9412-7.0061 0.78587-1.1947 1.1874-2.0769 1.1381-2.5007-0.19643-1.6908-4.8847-2.8907-17.539-4.4888-7.457-0.94178-13.993-1.3423-22.225-1.3618-10.623-0.0252-19.126 0.5446-33.867 2.2695-5.871 0.68701-12.267 1.3227-16.007 1.5908-15.252 1.0934-24.275 2.2776-44.318 5.8167-4.4911 0.79299-10.26 1.6758-13.891 2.1257-4.132 0.51202 15.292-3.9829 28.524-6.6006 16.657-3.2954 25.459-4.8116 38.416-6.6174 24.629-3.4325 49.476-5.6118 75.671-6.6368 9.9958-0.39115 40.907-0.56651 46.64-0.2646 1.4876 0.0783 6.5146 0.26589 11.171 0.41676 28.97 0.93864 65.484 4.5549 93.662 9.276 34.679 5.8103 74.213 15.851 101.47 25.771 2.6921 0.97983 5.2283 1.8996 5.6359 2.044 1.4311 0.50679 0.53594 0.44334-1.1516-0.0816-2.1036-0.65438-6.0984-1.8371-13.348-3.9516-14.785-4.3126-21.332-5.9188-37.282-9.1467-6.3226-1.2796-7.6967-1.4786-7.2713-1.0532 0.0647 0.0647 2.7337 0.89107 5.9311 1.8364 8.8259 2.6094 17.141 5.6264 21.424 7.7728 2.8845 1.4458 4.5767 2.719 7.0115 5.2754 3.1856 3.3447 5.7019 4.9555 10.98 7.0287 2.395 0.94071 12.275 4.0202 15.478 4.8243 7.4366 1.8669 17.671 5.1924 27.252 8.8551 6.2487 2.3888 14.162 4.765 17.694 5.3129 1.6856 0.26153 2.1018 0.24106 3.137-0.15428 1.6381-0.62559 3.3465-0.5293 7.165 0.40385 1.7914 0.43779 3.5098 0.79597 3.8185 0.79597 0.55306 0 9.9635 5.3831 14.091 8.0605 3.2214 2.0897 7.302 5.4386 11.114 9.1208 3.0855 2.9808 5.2482 4.9309 10.535 9.4993 0.89932 0.77713 3.3615 2.7934 5.4716 4.4807 6.32 5.0535 8.6086 7.0721 14.159 12.488 7.4799 7.2982 10.861 10.258 12.376 10.834 1.2944 0.4921 3.5302 2.1103 4.8286 3.4948 2.3301 2.4845 6.6412 8.2537 10.002 13.385 12.192 18.615 18.585 37.185 20.018 58.151 1.2109 17.714-4.0733 39.212-14.191 57.736-2.2156 4.0564-5.6954 9.6856-6.5072 10.527-0.14044 0.14552 0.65596-1.5343 1.7698-3.7329 1.5446-3.049 2.061-4.345 2.1762-5.4617 0.1398-1.3547 0.10107-1.4969-0.51843-1.9029-0.86407-0.56616-4.2657-0.32515-6.0132 0.42603-1.7035 0.73231-5.7439 4.9898-9.4668 9.9756-8.8633 11.87-12.885 16.038-20.48 21.227-4.5698 3.1217-8.254 6.1241-13.524 11.021-2.5032 2.3261-5.1465 4.7382-5.8741 5.3602-1.8626 1.5923-3.9907 4.1025-4.6891 5.531-0.78203 1.5996-0.78425 3.196-6e-3 4.1704 1.5051 1.8841 1.4748 1.7693 0.85149 3.2181-0.78709 1.8296-0.65244 2.2719 0.72199 2.372 0.64236 0.04675 1.4461-0.09459 1.9142-0.3366 1.0312-0.53324 2.1333-0.95319 2.1333-0.81285 0 0.2585-5.8931 4.3618-11.509 8.0138-27.029 17.576-59.275 32.56-96.441 44.814-9.4698 3.1222-8.9277 2.9538-19.447 6.0416-31.56 9.2641-70.59 16.878-108.48 21.163-14.195 1.6051-21.569 2.2157-24.474 2.0264-1.3824-0.09009-5.5496-0.34023-9.2604-0.55586-9.3806-0.54512-12.241-0.85408-14.684-1.5861-1.1642-0.34877-5.2718-1.5892-9.1281-2.7564-16.331-4.9431-21.095-5.3804-34.793-3.1937-8.4968 1.3564-12.563 1.8277-20.505 2.3763-12.165 0.84034-16.431 1.4728-16.622 2.4643-0.12007 0.62344 0.93112 1.0271 5.6749 2.1792 4.2006 1.0202 5.1846 1.4421 5.6267 2.4124l0.28146 0.61772-3.3678-0.03352c-1.8523-0.01852-7.5945-0.31041-12.76-0.64884zm-12.753-17.149c0.46585-0.2409 0.84701-0.61923 0.84701-0.84071 0-1.0511-3.6156-3.1275-5.9531-3.4189-2.5496-0.31787-7.0464 0.81232-7.4536 1.8733-0.6408 1.6699 3.6953 3.087 8.9217 2.9158 1.9296-0.06321 3.0524-0.22662 3.638-0.52943zm8.6193-9.7975c3.6346-0.5752 5.8174-1.858 4.9468-2.907-1.7694-2.132-17.744-1.707-19.983 0.53165-0.59198 0.59195-0.51869 0.7897 0.53361 1.44 2.3504 1.4526 3.1114 1.5986 7.6562 1.4693 2.3283-0.06625 5.4092-0.30657 6.8463-0.53398zm-205.93-43.947c1.6306-0.84323 0.64902-2.215-4.1997-5.8691-5.383-4.0568-8.3172-6.455-10.589-8.6548-5.8197-5.6347-7.3877-9.3278-5.097-12.004 0.46218-0.53996 1.1935-1.6961 1.6251-2.5693 0.67453-1.3644 0.78484-1.8884 0.78502-3.7289 5.3e-4 -4.7334-2.2648-8.6425-10.726-18.51-5.7318-6.6842-7.092-8.7263-9.8601-14.803-3.5004-7.6839-6.3064-10.693-11.776-12.629-2.7353-0.96795-7.6557-1.4971-10.038-1.0794-3.9222 0.68765-6.6887 2.4056-7.9976 4.9664-0.73365 1.4354-0.79799 1.7783-0.79278 4.2258 5e-3 2.4794 0.0822 2.865 1.1118 5.5741 2.2404 5.8947 2.1929 6.3646-0.99771 9.8643-2.5125 2.756-3.6917 4.8917-3.6917 6.6866 0 2.3905 1.7303 6.6344 5.2259 12.818 0.74039 1.3097 1.9056 3.7505 2.5895 5.424s1.5226 3.5959 1.8639 4.272c1.4606 2.8933 5.3108 6.8393 10.694 10.96 5.914 4.5269 11.533 7.5899 17.714 9.656 3.5128 1.1742 5.0231 1.5138 11.705 2.632 2.6645 0.4459 6.69 1.1627 8.9456 1.5929 6.9832 1.3319 8.2638 1.5205 10.53 1.5502 1.4998 0.01958 2.4434-0.09914 2.9766-0.37484zm184.85-73.554c4.2601-0.55046 8.7047-1.6615 15.293-3.8229 13.777-4.5195 15.187-4.7147 36.38-5.0329 19.863-0.29821 25.588-0.68424 39.154-2.6401 11.84-1.7069 15.167-1.9498 21.025-1.5346 6.9546 0.49294 11.849-0.29776 16.727-2.7021 2.4226-1.1942 2.95-1.5946 5.2917-4.0177 4.0479-4.1888 4.9772-5.0074 7.487-6.5951 6.8777-4.351 17.403-5.4843 25.571-2.7534 3.629 1.2133 5.2131 2.2824 8.8338 5.9616 2.8576 2.9038 3.5051 3.4286 4.7625 3.8596 2.1241 0.72816 6.2105 0.59478 16.14-0.52671 7.677-0.86715 29.22-3.0722 33.867-3.4666 5.0145-0.42553 7.3548-1.0976 14.288-4.1028 9.0178-3.9091 10.551-4.1947 24.209-4.509 11.386-0.26207 13.017-0.44294 15.494-1.7189 1.6108-0.82981 2.5153-1.671 3.1386-2.9189 0.80158-1.605 0.67704-3.7933-0.35304-6.203-1.2808-2.9964-1.466-3.6386-1.9889-6.8968-0.60425-3.7656-1.5557-6.0353-3.1982-7.6293-2.3015-2.2335-6.564-3.6328-10.314-3.3857-4.6625 0.30724-7.4961 2.4597-10.991 8.3489-2.4514 4.1309-5.8843 7.2586-9.6377 8.781-4.061 1.6472-7.9857 1.6883-14.164 0.14832-2.0373-0.50779-4.7757-1.1695-6.0854-1.4703-3.2877-0.75538-7.9612-3.1185-11.632-5.8816-1.8994-1.4298-5.1871-4.4719-9.525-8.8137-6.964-6.9701-8.0818-7.8846-14.741-12.06-5.4183-3.3974-10.205-5.7528-16.889-8.3096-3.2114-1.2286-6.5548-2.6154-7.4298-3.0817-4.8381-2.5787-5.8814-6.4685-2.5217-9.4021 1.3092-1.1432 3.9832-2.432 7.0433-3.3948 7.6699-2.4131 11.554-4.1037 13.541-5.8935 2.0111-1.8119 2.8658-4.7111 2.8599-9.7008-5e-3 -4.5-0.48477-6.4507-3.9611-16.117-1.5716-4.3703-0.98067-6.0784 2.9999-8.6709 2.7371-1.7826 6.9862-3.1083 18.427-5.7492 10.77-2.4859 13.218-2.9075 19.447-3.3487 5.8793-0.4164 7.5032-0.75375 10.12-2.1024 3.324-1.713 4.8288-3.5433 4.8288-5.873 0-2.4957-1.3887-4.6768-4.4636-7.0104-2.7086-2.0557-5.9143-3.4399-12.076-5.2142-16.548-4.7652-23.723-5.9909-42.727-7.2991-15.858-1.0916-23.569-0.80495-42.466 1.5788-3.9291 0.49567-9.8227 1.2026-13.097 1.5709-7.6971 0.86585-9.4719 1.127-12.034 1.7707-4.3811 1.1007-7.0923 3.0163-9.6474 6.8164-1.8148 2.699-2.8142 3.6007-5.5708 5.0264-3.9714 2.054-7.7856 2.9492-19.876 4.6649-8.9019 1.2632-15.209 2.416-17.865 3.2654-4.1541 1.3283-7.4593 3.1814-9.4276 5.2856-1.4889 1.5917-2.1426 2.8534-2.8532 5.5062-0.30495 1.1384-0.99425 2.8438-1.5318 3.7897-0.53753 0.94589-1.4509 2.777-2.0298 4.0692-1.8512 4.1325-3.5947 5.4735-7.8028 6.0011-4.6151 0.5787-12.1-0.80584-31.482-5.8232-7.963-2.0614-10.697-2.6661-16.669-3.6867-4.8044-0.8211-15.15-2.3482-18.918-2.7924-8.393-0.98956-9.7911-1.0573-19.711-0.95488-19.36 0.1999-25.943 0.13402-32.771-0.32795-8.2193-0.55605-11.041-0.56647-14.457-0.0535-4.8075 0.72194-8.4562 2.2935-12.203 5.2561-3.4768 2.7492-7.202 7.6104-10.797 14.089-5.2498 9.4614-5.3918 13.477-0.6351 17.964 2.851 2.6895 5.617 4.1353 14.903 7.7905 1.8918 0.74462 4.2403 1.8286 5.219 2.4089 5.0722 3.0074 8.1279 8.0159 7.8198 12.817-0.1482 2.3092-0.78642 3.7418-3.1152 6.9924-2.3371 3.2622-3.0125 4.7751-3.0063 6.7337 7e-3 2.135 0.88427 3.8436 2.9613 5.7666 2.0869 1.9321 4.2137 3.3173 10.014 6.5224 8.0005 4.4206 10.264 5.9519 13.331 9.0191 2.6391 2.6391 3.5652 3.9414 7.5457 10.611 4.0816 6.8394 6.3524 9.8933 9.9343 13.36 4.3869 4.2461 13.672 10.821 18.881 13.371 5.0575 2.4752 9.9488 3.8799 15.478 4.4451 3.9254 0.40121 14.209 0.34102 17.647-0.10327zm232.38-218.02c0-0.60365-1.7197-1.2182-3.5448-1.2669-1.2926-0.0344-1.6138 0.0405-1.6861 0.39368-0.12237 0.59796 1.7515 1.2358 3.7095 1.2627 1.2072 0.0166 1.5214-0.0639 1.5214-0.38948zm0.52917-14.406c0-0.14552-0.1261-0.26459-0.2802-0.26459-0.15412 0-0.20661 0.11907-0.11668 0.26459 0.0899 0.14552 0.21603 0.26458 0.2802 0.26458 0.0642 0 0.11668-0.11906 0.11668-0.26458zm-0.79375-0.13884c0-0.26585-1.4748-0.70417-4.4979-1.3369-3.344-0.69983-3.9688-0.76204-3.9688-0.39516 0 0.30886 2.1928 0.95322 4.9197 1.4456 2.2424 0.40493 3.547 0.51027 3.547 0.28639zm191.78 89.101c-2.8378-2.436-9.9359-8.7866-12.52-11.202-1.3097-1.224-3.9588-3.5786-5.887-5.2327-1.9282-1.654-3.5057-3.0667-3.5057-3.1392 0-0.0725 0.14882-0.0164 0.33073 0.12476 0.1819 0.14115 1.1642 0.89217 2.1828 1.6689 5.3315 4.0654 12.444 10.218 17.548 15.181 1.9343 1.8806 3.9612 4.1336 3.7071 4.1209-0.0486-3e-3 -0.88358-0.68704-1.8555-1.5214zm-523.35-89.142c0.191-0.0764 0.4192-0.067 0.50712 0.0209 0.0879 0.0879-0.0683 0.15046-0.34727 0.13897-0.30822-0.0127-0.37092-0.0754-0.15985-0.15985z" fill="#66625e" stroke-width=".26458"/> <path d="m319.87 95.688c-4.8738-0.32792-17.102-1.7599-27.252-3.1914-50.097-7.0652-96.869-18.952-136.84-34.778-9.4588-3.745-12.15-4.9053-17.835-7.6902-6.0638-2.9704-12.819-7.3749-13.627-8.8849-1.037-1.9376 2.5748-1.6019 20.664 1.9204 12.065 2.3494 22.118 5.0224 29.236 7.774 2.1901 0.84653 12.096 3.8504 15.716 4.766 1.3969 0.35327 4.8616 1.072 7.6993 1.5972 10.181 1.8843 16.788 3.8842 20.902 6.3267 3.669 2.1781 8.053 5.3075 8.46 6.0388 0.51774 0.93046 0.16615 1.5443-1.0734 1.8742-1.4867 0.39566-9.0263-4e-3 -14.266-0.7561-3.5419-0.50845-5.4433-0.66008-6.8792-0.54856-1.3929 0.10819-2.9701-0.0077-5.2917-0.3887-4.429-0.72697-7.0126-0.9393-6.7763-0.55692 0.35833 0.57981 5.4714 2.0277 11.01 3.1176 4.4297 0.8718 10.982 2.4066 20.77 4.8652 26.748 6.7187 34.077 8.1358 48.551 9.3869 2.5466 0.22013 5.6422 0.51845 6.8792 0.66297 1.2369 0.14449 3.6777 0.39016 5.424 0.54589 9.3177 0.83103 32.947 5.0037 38.298 6.7629 1.2261 0.40309 1.7409 1.1606 0.79375 1.168-0.25466 0.0026-0.70114 0.04609-0.99219 0.09803-0.29104 0.05191-1.8984 0.0026-3.5719-0.11033zm215.6-30.55c-2.4071-0.45662-4.1194-1.1044-6.9729-2.6382-1.1642-0.62574-3.1639-1.5265-4.4438-2.0018-2.504-0.92983-3.3614-1.6733-3.3614-2.9147 0-1.5192 2.8919-3.3185 12.267-7.6325 6.2143-2.8595 11.016-6.2067 11.016-7.6788 0-1.1962-0.89379-1.4411-5.6885-1.559-8.492-0.20873-30.499 0.62466-37.703 1.4278-10.928 1.2182-16.986 2.9043-25.135 6.9955-9.2941 4.6658-12.473 5.1997-33.073 5.5548-9.3876 0.16182-15.725 0.40322-20.373 0.77605-18.706 1.5004-28.514 0.69871-37.571-3.0712-1.2369-0.51488-3.261-1.3541-4.4979-1.8649-1.2369-0.51083-5.1065-1.7426-8.599-2.7372s-7.7788-2.2964-9.525-2.8928c-6.4326-2.197-12.946-5.921-15.995-9.1443-2.7967-2.9571-1.8665-3.8295 8.4543-7.9286 3.1996-1.2707 7.6546-3.3535 11.728-5.483 3.6128-1.8887 7.9336-4.0827 9.6018-4.8756 5.3576-2.5467 8.2727-4.5896 9.2525-6.4844 0.87085-1.684 0.18044-3.2413-1.8041-4.0693-0.98052-0.40907-2.1237-0.47879-8.67-0.52885-4.3646-0.033391-9.3794-0.23339-11.906-0.47487-11.754-1.1233-14.816-1.3241-20.373-1.3353-8.2514-0.016669-11.475 0.66807-16.103 3.4211-5.0096 2.9799-7.282 5.6595-7.283 8.5881 0 2.7634 1.2804 4.3614 7.1552 8.9234 1.9142 1.4865 3.7299 3.0198 4.0349 3.4076 0.63124 0.80248 0.72739 2.0128 0.195 2.4547-0.59754 0.49588-3.2253 1.3084-7.8346 2.4226-7.3449 1.7754-10.795 3.0625-19.856 7.4064-3.0664 1.4701-6.3997 2.8746-7.4643 3.1454-7.4041 1.8827-20.371 0.0794-36.73-5.1081-8.4108-2.667-11.854-4.1346-22.476-9.5785-6.1334-3.1436-8.501-3.9667-19.389-6.7404-5.0614-1.2894-10.3-2.7807-11.642-3.3142-7.2811-2.8953-13.105-7.7429-15.869-13.21-0.88552-1.751-1.2218-3.0674-1.5007-5.8739-0.12697-1.2781-0.43417-3.8506-0.68265-5.7168-0.73094-5.4896-0.0367-8.4475 2.2675-9.6617 1.156-0.60912 1.2664-0.61666 6.7316-0.46056 10.818 0.30898 16.793-0.67458 22.622-3.7242 6.5313-3.417 13.023-9.6054 14.041-13.385 0.80179-2.9776-1.4132-4.939-7.2296-6.402-4.766-1.1988-9.473-1.6677-26.655-2.6554-9.8588-0.56671-12.627-1.3278-15.982-4.3935-2.7-2.4676-4.7202-7.5276-4.7445-11.884-0.0341-6.0977 3.8614-10.995 9.9905-12.56 2.694-0.6877 5.6425-0.93435 11.126-0.93067 2.9142 0.0026 8.3487-0.13912 12.077-0.31345 13.438-0.62844 20.238 0.72337 26.692 5.3065 2.315 1.644 7.4659 6.6597 8.8971 8.6636 1.6473 2.3065 2.3976 4.1615 3.5629 8.8081 1.1403 4.547 1.6875 5.6099 3.6176 7.0271 1.5598 1.1453 2.9953 1.6894 11.439 4.3363 20.676 6.4813 29.574 8.2304 44.582 8.7646 12.579 0.44762 19.348 0.79446 23.548 1.2065 18.15 1.7807 31.651 5.7196 42.466 12.389 2.5872 1.5956 4.6115 3.2028 7.5523 5.996 3.4515 3.2782 4.2066 3.7343 6.4482 3.8947 2.4881 0.17801 4.0311-0.22246 8.8851-2.3062 8.0185-3.4421 12.178-4.6201 25.269-7.1558 9.9298-1.9234 12.544-2.5852 20.373-5.1569 11.696-3.8421 15.554-4.4965 25.268-4.2866 6.5218 0.14097 10.045 0.51046 18.246 1.9134 11.634 1.9903 13.78 2.6115 21.045 6.091 8.7535 4.1924 13.492 5.4327 22.818 5.973 8.9012 0.51573 18.557-0.31327 23.881-2.0504 3.2404-1.0571 7.2132-2.6733 8.7927-3.577 2.4614-1.4083 5.6556-3.9172 8.6881-6.8244 1.6108-1.5442 4.0516-3.7331 5.424-4.8641 5.9447-4.8995 6.4925-5.8677 7.2687-12.848 0.74009-6.6555 1.8946-8.9537 5.3719-10.693 3.8446-1.9234 7.066-1.9012 16.048 0.11049 8.9938 2.0142 9.9396 2.2906 12.961 3.7874 8.089 4.0069 10.299 8.3301 6.4817 12.678-1.2741 1.4511-3.676 3.0533-7.2106 4.8097-3.3315 1.6555-4.8197 2.7915-5.0953 3.8897-0.2572 1.0248 0.53774 2.4293 2.159 3.8143 0.78219 0.66823 2.4383 2.3817 3.6802 3.8078 2.2388 2.5706 5.4381 5.4601 7.8619 7.1005 2.4911 1.6859 6.7159 2.0193 13.379 1.0557 3.9713-0.57436 5.9192-1.189 8.109-2.5587 1.6736-1.0467 8.3616-7.2479 15.339-14.222 5.6623-5.6599 6.4892-6.3762 11.524-9.9837 6.2888-4.506 12.597-9.7107 16.953-13.986 5.3821-5.2835 6.271-7.3207 4.9957-11.45-0.77999-2.5253-2.9142-7.3557-4.3355-9.8126-1.1398-1.9703-2.7802-6.5406-3.2091-8.9411-0.26093-1.4604 0.45411-3.1192 1.8162-4.2135 0.61068-0.49062 1.8951-1.4448 2.8543-2.1204 4.3212-3.0437 4.6427-5.4949 0.72062-5.4949-1.9914 0-4.0795 0.80013-6.1246 2.3469-2.7943 2.1134-3.5172 2.4686-5.3168 2.6131-3.592 0.28832-8.6275-1.2025-15.497-4.5881-6.4008-3.1545-8.5918-4.9428-9.4175-7.6864-0.69453-2.3077-0.0323-3.9414 3.6777-9.0728 3.5412-4.8979 4.9461-8.0226 4.9461-11.001 0-2.3676-2.4154-5.442-5.3731-6.8389-3.6523-1.725-7.6833-2.0474-16.982-1.3579-10.433 0.77362-17.241 0.31036-25.244-1.7179-6.5199-1.6523-9.6376-3.0535-12.229-5.4958-2.1951-2.0692-3.3536-4.2109-4.4729-8.2691-0.46109-1.6718-1.1491-3.6158-1.5288-4.32-1.5255-2.8289-5.3943-5.3157-11.339-7.2889-4.1529-1.3784-9.2397-2.4222-18.144-3.7231-8.8475-1.2927-9.8534-1.479-12.118-2.2451-3.2108-1.0863-4.1594-2.185-3.308-3.8315 1.1863-2.294 10.031-6.9912 26.082-13.852 7.3531-3.1427 10.326-4.5837 12.425-6.0223 4.0976-2.8088 5.6169-6.0088 4.6482-9.7901-0.6812-2.659-2.1013-5.1918-5.3668-9.5719-1.6578-2.2237-3.2687-4.4598-3.5798-4.9691-2.5444-4.1667-5.5137-6.1065-16.207-10.588-12.076-5.0605-16.536-7.9209-16.536-10.603 0-2.1178 2.6438-3.1596 12.039-4.7437 7.139-1.2038 10.564-2.1221 14.857-3.9837 4.1427-1.7965 5.305-2.0897 8.2944-2.0921 3.5248-3e-3 6.25 0.49686 15.692 2.8777 9.665 2.437 13.061 3.6483 30.345 10.823 6.3302 2.6275 15.2 6.2243 19.711 7.9929 12.654 4.9608 12.623 4.9483 18.498 7.5964 9.4012 4.2374 10.82 5.068 12.027 7.0388 0.28324 0.46279 1.0758 2.3297 1.7611 4.1487 2.349 6.2344 4.3008 9.6273 8.9799 15.61 2.9049 3.7145 4.1319 6.0474 5.7129 10.862 0.57473 1.7502 1.3497 3.7837 1.7222 4.5187 1.4127 2.7879 5.645 6.1416 13.255 10.504 6.4286 3.6846 11.973 7.1695 16.096 10.117 8.793 6.2862 12.45 8.0545 18.307 8.8511 4.0742 0.55414 4.9279 0.82367 6.0446 1.9082 1.6177 1.571 3.9365 6.7721 6.9152 15.511 3.0434 8.9283 5.4851 14.546 7.8122 17.974 1.3869 2.0432 3.94 4.6228 4.7328 4.782 0.3511 0.0705 1.5108 0.32588 2.5771 0.5675 1.8223 0.41291 1.9688 0.41204 2.4406-0.01508 0.27604-0.24982 0.87715-1.4484 1.3358-2.6636 1.6693-4.4228 1.982-3.4536 1.7334 5.3727-0.21982 7.8044-0.82709 12.353-1.3201 9.8876-0.11605-0.5802-0.31247-0.81029-0.69173-0.81029-0.73969 0-1.1391 0.72882-2.3797 4.3425-1.2422 3.6185-3.3494 7.6173-4.9607 9.4141-1.0839 1.2087-1.1769 1.2518-3.9688 1.8387-7.7996 1.6398-9.0463 2.2919-11.521 6.0259-3.9736 5.9964-5.7772 8.8431-6.4171 10.129-1.5487 3.111-5.7505 10.346-6.8852 11.855-1.4373 1.9121-3.9585 4.2902-5.5157 5.2028-2.6609 1.5594-3.8584 1.7961-9.4304 1.8643-5.7488 0.07027-7.5559 0.34108-10.008 1.4997-2.2013 1.0403-6.2956 4.9797-9.3061 8.9538-6.4065 8.4574-10.307 12.161-14.514 13.78-2.0111 0.77399-4.7984 0.76888-9.1459-0.01667-3.0385-0.54914-3.9215-0.60029-7.9375-0.45995-2.4853 0.08686-5.4712 0.28038-6.6354 0.43005-1.8866 0.2426-5.5163 0.63682-18.256 1.9829-7.2913 0.77039-10.199 1.7389-12.733 4.2405-1.3589 1.3416-1.7608 1.9636-2.4874 3.8491-1.6894 4.3842-1.3272 5.9507 1.7113 7.4008 1.9806 0.94528 3.4664 1.1523 11.334 1.5794 5.0532 0.27429 5.7902 0.43458 6.6012 1.4357 1.0207 1.2601 0.31239 2.8915-2.0657 4.758-2.301 1.8059-6.0194 3.922-16.119 9.1728-10.954 5.695-13.237 6.957-16.404 9.0681-5.1165 3.41-6.9854 5.2865-6.6391 6.666 0.18698 0.74504 1.7604 1.1943 4.1826 1.1943 2.0816 0 10.042-0.63942 14.627-1.1749 7.5916-0.88664 9.9452-0.81965 10.373 0.2952 0.74041 1.9295-12.783 8.6491-25.731 12.785-9.3268 2.9796-14.877 4.0044-29.357 5.421-7.5762 0.74118-15.741 2.3614-24.739 4.9088-13.717 3.8838-18.835 4.7339-29.501 4.9009-5.0329 0.07877-7.0983 0.01164-8.6375-0.28022zm224.93-155.68c0-0.98655-1.44-1.5105-1.7722-0.64484-0.10691 0.27858 0.0453 0.6109 0.4181 0.91276 0.6641 0.53777 1.3541 0.40124 1.3541-0.26792zm-729.07 56.309c-0.71971-0.44879-2.7976-2.3309-4.6175-4.1825-2.724-2.7714-3.8502-4.1823-6.3707-7.9814-4.8689-7.3388-7.7326-12.933-11.205-21.888-0.79012-2.0379-2.5745-8.7091-3.1646-11.831-0.21493-1.1373-0.90297-8.0085-1.2196-12.179-0.14853-1.9569-0.45544-4.4224-0.68202-5.4789-1.2807-5.9718 1.7399-27.249 4.6991-33.101 0.45278-0.89543 1.4483-3.1759 2.2122-5.0676 2.9849-7.3914 5.4678-12.742 6.6918-14.42 1.9512-2.675 2.9574-3.0721 3.6407-1.4368 0.39877 0.95438 1.0089 7.1098 0.99472 10.036-0.0141 2.9066-1.0507 6.3058-3.6714 12.039-2.5257 5.525-3.6495 8.6514-5.3256 14.817l-1.5465 5.6885-4.5e-4 4.3656c-5e-4 4.7938 0.1333 5.439 1.9122 9.2208 1.5524 3.3003 3.6755 5.1109 5.9933 5.1109 0.60151 0 2.0652-0.24805 3.2526-0.55123 2.9837-0.76179 4.0992-0.70477 6.9506 0.35534 5.0827 1.8897 7.0596 3.6983 9.5649 8.7508 1.97 3.9728 2.7463 6.8906 2.5443 9.562-0.16353 2.1623-0.71381 3.5733-2.3106 5.9247-1.2194 1.7957-2.315 4.0877-3.0311 6.3413-0.25433 0.80036-1.306 3.2411-2.337 5.424l-1.8746 3.9688-0.10172 3.175c-0.095 2.9647-0.0389 3.4157 0.84615 6.8088 1.2599 4.83 1.2366 7.3464-0.068 7.3464-0.25743 0-1.0569-0.36719-1.7766-0.816zm119.61-133.45c-0.14552-0.0452-0.95668-0.22458-1.8026-0.39868-1.7692-0.36414-3.3568-1.5521-3.3568-2.5118 0-0.97576 0.99306-1.9536 3.004-2.9581 6.3679-3.1808 8.3352-4.8918 12.275-10.676 3.4056-5.0001 3.3541-4.9477 5.3585-5.4529 5.5745-1.4049 10.838 1.5672 10.846 6.1244 2e-3 1.1388-0.88911 2.6375-3.1679 5.3272-3.259 3.8467-6.0788 6.5286-7.9431 7.5547-3.6712 2.0206-8.1744 3.1321-12.536 3.0944-1.327-0.0114-2.5318-0.0579-2.6773-0.10305zm170.39-29.698c-0.58209-0.055-4.6897-0.56857-9.1281-1.1413-4.4384-0.57277-11.165-1.3458-14.949-1.7177-13.798-1.3565-17.595-2.1951-20.722-4.5766-0.48326-0.36796-2.0211-2.2856-3.4175-4.2613-3.3198-4.6973-4.0748-5.6113-7.8854-9.5454-4.6096-4.7591-5.6778-6.5684-5.6778-9.6167 0-2.3561 1.8083-8.4458 3.0325-10.212 1.9872-2.8676 7.6128-5.0065 21.212-8.0649 15.72-3.5353 23.871-4.5706 40.981-5.2052 9.3644-0.34732 25.706-0.16303 38.491 0.43409 23.561 1.1004 28.794 0.83935 42.618-2.1258 8.6913-1.8642 12.924-2.3494 20.617-2.3636 3.8826-7e-3 7.4904 0.12474 8.9958 0.3289 5.1524 0.69872 10.716 1.1147 20.108 1.5036 16.041 0.66409 20.375 1.0692 25.62 2.3946 4.2363 1.0706 6.6525 2.5176 7.0857 4.2435 0.0954 0.38-0.19447 1.3623-0.79338 2.6887-0.51901 1.1495-1.1243 2.9489-1.3452 3.9988-0.67212 3.1952-1.5132 4.261-4.3742 5.5428-5.5368 2.4808-14.672 3.1251-34.099 2.4049-14.585-0.54069-25.493 0.61065-31.649 3.3405-2.6355 1.1687-4.8646 2.8319-8.2059 6.1225-6.7636 6.6611-10.884 9.3367-18.453 11.984-4.6034 1.6101-8.2529 2.5007-15.787 3.8526-14.874 2.669-20.276 3.8999-27.405 6.244-6.433 2.1154-11.04 3.2228-15.257 3.667-2.3655 0.24916-7.382 0.29115-9.6136 0.0804zm204.46-90.747c0.25744-0.0671 0.61462-0.0627 0.79375 0.01 0.17915 0.0725-0.0315 0.12736-0.46805 0.12197-0.43656-5e-3 -0.58312-0.0647-0.3257-0.13177zm-1.4602-0.25646c0.1819-0.0734 0.47956-0.0734 0.66146 0s0.0331 0.13345-0.33073 0.13345c-0.3638 0-0.51263-0.06-0.33073-0.13345zm-1.3064-0.2701c0.191-0.0764 0.41921-0.067 0.50713 0.0209 0.0879 0.0879-0.0684 0.15045-0.34727 0.13896-0.30824-0.0127-0.37092-0.0754-0.15986-0.15985zm-1.8686-0.25907c0.1819-0.0734 0.47956-0.0734 0.66146 0s0.0331 0.13345-0.33073 0.13345c-0.3638 0-0.51263-0.06-0.33073-0.13345zm-1.5875-0.26458c0.1819-0.0734 0.47956-0.0734 0.66146 0s0.0331 0.13345-0.33073 0.13345c-0.3638 0-0.51263-0.06-0.33073-0.13345zm-244.34-0.27271c0.25744-0.0671 0.61463-0.0627 0.79375 0.01 0.17915 0.0725-0.0315 0.12736-0.46805 0.12197-0.43656-5e-3 -0.58311-0.0647-0.3257-0.13178zm242.75 8e-3c0.1819-0.0734 0.47956-0.0734 0.66146 0s0.0331 0.13346-0.33073 0.13346c-0.3638 0-0.51263-0.0601-0.33073-0.13346zm-241.37-0.2174c0.50713-0.22926 8.2622-1.4407 16.801-2.6246 24.049-3.3343 50.141-5.5906 75.671-6.5436 16.935-0.63219 40.978-0.36996 51.726 0.56417 1.6007 0.13912 5.9465 0.43538 9.6573 0.65837 22.65 1.3611 42.131 3.5318 43.439 4.8404 1.1129 1.1129-6.679 1.5672-19.874 1.1588-14.987-0.46386-21.001-0.4067-28.031 0.26643-6.9262 0.66323-16.076 0.77208-21.067 0.25061-1.7462-0.18246-8.5328-0.90831-15.081-1.613-6.5484-0.70468-13.156-1.3611-14.684-1.4587s-4.6831-0.4126-7.0115-0.69999c-8.6608-1.069-19.087-0.92445-39.952 0.55407-10.656 0.75514-13.304 0.98012-25.135 2.1362-5.7418 0.56101-7.1239 0.69943-17.462 1.7488-7.9603 0.80798-9.3595 0.92651-8.9958 0.7621zm237.86-0.26374c-0.87312-0.18376-1.3494-0.34382-1.0583-0.35569 0.29104-0.0119 1.3031 0.13727 2.249 0.33141 0.94588 0.19415 1.4221 0.35421 1.0583 0.35569-0.3638 2e-3 -1.3758-0.14765-2.249-0.33141zm-2.8443-0.57719c0.1819-0.0734 0.47956-0.0734 0.66146 0s0.0331 0.13345-0.33073 0.13345c-0.3638 0-0.51263-0.06-0.33073-0.13345zm-1.7148-0.27271c0.25744-0.0671 0.61462-0.0627 0.79375 0.01 0.17915 0.0725-0.0315 0.12736-0.46805 0.12197-0.43656-5e-3 -0.58312-0.0647-0.3257-0.13178zm-2.1217-0.26361c0.25466-0.0665 0.67138-0.0665 0.92604 0 0.25467 0.0666 0.0463 0.121-0.46302 0.121s-0.71768-0.0545-0.46302-0.121zm-1.4552-0.25743c0.18191-0.0734 0.47956-0.0734 0.66146 0s0.0331 0.13345-0.33073 0.13345c-0.3638 0-0.51263-0.06-0.33073-0.13345z" fill="#5c5852" stroke-width=".26458"/> <path transform="matrix(.26458 0 0 .26458 0 -496.75)" d="m1487.9 744.02c-56.898 0.2039-113.56 1.9266-166.97 5.2109-392.03 24.109-750.64 127.21-994.5 285.92-73.944 48.124-138.7 103.02-186.92 158.46-159.94 183.88-170.2 390.85-28.66 577.99 206.81 273.44 706.68 461.83 1281.6 483 24.576 0.9051 63.032 1.3691 101.66 1.4082-297.02-29.454-567.33-120.77-763.25-258-198.11-138.76-307.16-315.34-307.54-498 0.14173-182.18 108.39-358.38 305.38-497.09 194.67-137.07 463.46-228.67 759.23-258.89z" fill-opacity=".31373"/> </g> </svg>