<?xml version='1.0' encoding='utf-8'?>
<svg xmlns="http://www.w3.org/2000/svg" width="3e3" height="3e3" version="1.1" viewBox="0 0 793.75 793.75"> <g transform="translate(0 496.75)"> <path d="m381.2 292.3c-15.05-0.54779-35.048-2.6898-51.604-5.5275-30.135-5.165-62.601-14.952-90.341-27.233-16.371-7.2479-37.102-18.212-49.878-26.378-2.9104-1.8604-6.5418-4.1792-8.0698-5.1528-1.528-0.97366-6.2777-4.2411-10.555-7.261-20.434-14.427-40.658-31.824-57.564-49.519-67.645-70.8-106.35-164.32-108.58-262.35-2.6631-117.05 47.574-229.72 136.49-306.11 84.087-72.246 194.6-105.61 304.53-91.934 76.924 9.57 148.93 41.629 208.04 92.63 14.783 12.754 27 25.002 40.216 40.319 42.233 48.948 71.718 107.52 85.885 170.61 14.08 62.702 12.438 128.55-4.7512 190.57-3.9772 14.35-7.5639 25.024-14.003 41.672-4.8064 12.427-14.652 32.804-22.737 47.059-57.958 102.19-158.71 173.04-274.66 193.16-12.402 2.1516-24.655 3.6594-37.968 4.6721-9.154 0.69636-11.917 0.79682-24.474 0.89006-7.7854 0.0578-16.775 0.01-19.976-0.10676z" fill="#b39d90" stroke-width=".26458"/> <path d="m382.52 291.75c-21.38-0.62568-49.35-4.2238-71.834-9.2408-24.965-5.5706-51.201-14.25-72.364-23.941-22.824-10.451-46.227-23.424-56.324-31.223-15.332-11.842-17.474-13.55-22.389-17.861-4.3907-3.8506-10.033-8.7211-13.73-11.853-1.2527-1.061-3.296-2.6178-4.5408-3.4595-2.147-1.4517-5.822-3.2104-6.7087-3.2104-0.39623 0-4.6585-3.8667-11.52-10.451-5.2609-5.0483-15.272-15.643-20.624-21.826-2.707-3.1276-5.7071-6.5208-6.6668-7.5406-2.9052-3.087-13.792-17.271-19.526-25.44-35.261-50.236-58.419-108.31-67.089-168.24-0.82249-5.6853-2.513-20.304-2.7691-23.945-0.1484-2.1101-0.44795-6.3368-0.66567-9.3927-0.66357-9.3138-0.95949-24.416-0.67877-34.64 0.91285-33.248 6.2971-67.799 15.219-97.66 13.14-43.98 31.535-82.208 56.652-117.73 14.306-20.233 32.133-40.953 48.429-56.287 5.6385-5.3058 6.3017-5.8734 11.883-10.168 1.7344-1.3346 4.6417-3.675 6.4607-5.2007 6.1138-5.128 7.2958-6.1117 13.78-11.469 11.086-9.1584 17.551-13.877 28.95-21.131 7.0758-4.5026 10.98-6.7988 24.474-14.395 1.2369-0.69628 5.285-2.784 8.9958-4.6394 3.7108-1.8554 7.1041-3.5855 7.5406-3.8447 0.43657-0.25917 5.08-2.3751 10.319-4.7021 23.938-10.633 49.747-19.201 72.706-24.137 9.2736-1.9938 10.867-2.2051 19.899-2.6382 10.507-0.50387 18.405-1.381 26.194-2.9093 4.0414-0.79295 6.959-1.266 15.743-2.5524 7.3-1.0692 8.8453-1.2095 16.199-1.4716 22.651-0.80721 50.984 1.323 76.008 5.7145 9.8199 1.7233 24.182 4.8169 31.353 6.7538 2.11 0.56986 6.2177 1.652 9.1281 2.4047 7.5939 1.9641 22.232 6.8596 33.166 11.092 17.097 6.6179 35.811 15.414 50.306 23.645 3.8584 2.191 7.551 4.2797 8.2058 4.6415 2.7572 1.5233 18.121 11.445 21.167 13.669 1.819 1.3283 5.3909 3.8827 7.9375 5.6764 6.934 4.884 18.017 13.613 26.186 20.624 13.056 11.206 29.234 27.158 37.538 37.015 8.0732 9.5832 10.719 12.787 12.278 14.864 0.92819 1.2369 2.7619 3.6777 4.075 5.424 4.7952 6.377 5.0811 6.8005 13.849 20.505 0.9775 1.528 2.1125 3.3734 2.5223 4.101 1.1463 2.0354 5.3141 8.9333 7.3148 12.106 4.1886 6.6427 12.5 22.228 14.849 27.846 0.36513 0.87312 1.3437 3.1353 2.1747 5.0271s2.3794 5.7613 3.4409 8.599c1.0615 2.8377 2.5897 6.7739 3.3959 8.7473 0.80621 1.9733 2.3504 6.2001 3.4315 9.3927 1.0811 3.1926 2.6816 7.7694 3.5565 10.17 4.4901 12.322 8.5757 24.767 12.386 37.726 1.3659 4.646 2.7367 15.643 2.9489 23.657 0.14325 5.4115-0.0632 10.131-0.77546 17.727-0.15693 1.6735-0.31219 7.2694-0.34502 12.435-0.0655 10.309-0.24927 11.942-1.6529 14.692-0.68445 1.3411-1.1872 1.7848-3.5457 3.1292-2.4004 1.3682-3.4294 2.6839-4.3306 5.5366-1.9231 6.0878-1.9143 14.327 0.0265 24.664 1.2455 6.6342 1.9621 10.876 2.369 14.023 0.46569 3.6015 1.0547 6.319 2.5234 11.642 0.56214 2.0373 1.4484 6.0854 1.9694 8.9958 1.8724 10.459 3.3615 17.759 3.9895 19.559 0.49332 1.4137 0.63929 2.3769 0.63929 4.2184 0 3.2634-0.4667 9.0754-1.0864 13.529-0.33549 2.4112-0.61095 6.6596-0.78912 12.171-0.31023 9.5957-1.0176 16.923-1.9836 20.547-1.5732 5.9022-6.5472 20.681-9.9472 29.555-18.509 48.31-46.738 92.939-82.338 130.18-3.9465 4.1278-7.3662 7.6402-7.5994 7.8052-0.23323 0.16502-3.2098 2.9704-6.6146 6.234-6.3218 6.0598-18 16.361-22.992 20.28-5.24 4.1143-12.039 9.2775-13.636 10.355-1.5553 1.0494-6.7088 4.0601-10.176 5.9453-10.313 5.6064-12.764 7.0129-19.05 10.931-11.352 7.0765-25.976 14.271-31.241 15.368-2.2483 0.46879-3.0806 0.27761-4.4127-1.0136-0.77261-0.74882-1.0735-0.85537-2.6697-0.94557-2.1162-0.11959-8.2635 0.62106-17.106 2.061-10.815 1.7611-19.86 2.9419-28.443 3.7134-10.25 0.92125-14.46 1.8449-16.294 3.5746-1.0513 0.99147-1.0412 0.84233-0.25506 3.7789 0.27472 1.0262 0.37568 1.9912 0.26294 2.5135-0.53173 2.4641-2.8645 5.1279-7.5267 8.5948-5.1805 3.8522-8.2021 7.1055-8.2021 8.831 0 0.9569 0.74081 1.6159 2.2789 2.0273 0.72107 0.19286 1.1443 0.42998 1.0048 0.56293-0.46278 0.44114-14.602 3.4416-23.687 5.0268-26.504 4.6243-52.606 6.4003-81.593 5.552zm37.112-4.0774c7.8926-0.64151 12.088-1.3824 14.38-2.5396 0.5265-0.26574 1.5981-1.0675 2.3812-1.7818 1.7126-1.5618 3.4947-2.7079 6.848-4.4043 4.354-2.2027 8.2778-5.113 9.1391-6.7787 1.1122-2.1508-0.14508-3.8811-3.5507-4.8862-2.5178-0.74316-13.763-2.5878-20.008-3.2822-1.3097-0.1456-5.4173-0.44548-9.1281-0.66635-7.9599-0.47385-9.9565-0.84082-19.447-3.5744-10.729-3.0904-11.918-3.3983-17.462-4.523-2.9104-0.59037-5.9465-1.2361-6.7469-1.435-5.2676-1.3088-16.432-3.0635-22.886-3.5971-4.7534-0.39296-19.549-0.15105-24.606 0.40233-2.0373 0.22293-6.1877 0.5348-9.2231 0.69305-3.0354 0.15824-5.8066 0.39714-6.1583 0.53086-1.7901 0.68058-0.59285 2.0528 3.7123 4.255 3.4614 1.7705 10.782 5.7615 13.654 7.4432 5.6404 3.3036 8.0319 5.4739 11.011 9.9923 2.0367 3.0887 3.415 4.4193 5.8348 5.6326 2.9679 1.4882 9.315 3.3894 13.845 4.1474 7.9546 1.3307 23.09 3.4238 30.559 4.226 5.9253 0.63635 20.857 0.71472 27.852 0.14613zm-163.22-35.597c2.9876-0.38783 4.5771-1.2497 7.0411-3.8181 1.937-2.0191 2.2706-2.2536 3.9305-2.7633 2.863-0.87897 8.3248-0.68276 17.987 0.64611 5.3932 0.74176 8.8082 0.84064 9.5785 0.27734 0.48152-0.35208 0.48567-0.4186 0.0785-1.2568-0.23643-0.48675-1.7631-2.3138-3.3925-4.06-5.2687-5.6462-7.2237-8.6483-9.8091-15.062-1.7645-4.3774-2.7414-6.0234-4.6557-7.8444-2.217-2.109-4.542-3.3844-11.057-6.0656-9.0755-3.7349-11.073-4.8446-17.873-9.9282-11.137-8.3261-17.427-10.97-26.108-10.973-3.8102 0-6.4841 0.37973-9.6103 1.3694-3.2175 1.0186-5.1101 2.0887-8.0698 4.5626-1.3097 1.0947-3.1496 2.3805-4.0888 2.8573-1.5452 0.78452-1.9225 0.86553-3.9688 0.85236-2.0819-0.0135-2.665-0.15394-7.3523-1.7722-8.3403-2.8794-13.616-3.8185-20.016-3.5633-6.8164 0.27178-9.0817 1.2076-7.9976 3.304 0.70398 1.3613 6.7327 6.8921 12.838 11.778 6.4239 5.1404 9.8428 8.0488 14.376 12.229 9.2242 8.506 12.105 10.772 19.455 15.308 4.2819 2.642 7.4446 4.2285 12.1 6.0695 6.8767 2.7192 13.721 4.8495 18.521 5.7645 12.488 2.3808 14.266 2.5859 18.094 2.0889zm207.11-85.301c2.4648-0.36558 6.8511-1.2185 19.008-3.6962 6.7564-1.377 10.273-1.7484 16.627-1.7562 9.0152-0.0111 12.46-0.50781 16.497-2.3792 3.6608-1.6971 5.0027-2.7803 12.12-9.7832 12.761-12.556 17.029-15.44 44.777-30.263 9.6969-5.1799 16.321-9.5489 23.437-15.459 3.2-2.6576 14.686-13.538 19.363-18.341 8.0643-8.2825 12.181-14.519 13.777-20.87 0.66982-2.6663 0.69131-7.8938 0.0424-10.319-0.65122-2.4335-2.3392-5.741-4.1698-8.1703-3.9988-5.3067-9.3076-8.682-17.297-10.997-2.4972-0.72366-5.5022-1.353-17.62-3.6902-10.19-1.9655-9.6286-1.8792-19.065-2.9297-14.634-1.6291-19.989-2.8569-27.139-6.2217-6.3983-3.0112-10.95-6.9895-15.081-13.181-2.9969-4.492-9.9545-19.005-11.904-24.832-0.72858-2.1773-0.98446-3.4747-1.1716-5.9409-0.41511-5.4688-1.5565-8.4602-4.1233-10.806-1.592-1.455-3.2645-2.1335-5.2378-2.125-3.9921 0.0172-6.6072 3.1943-9.6685 11.746-1.8397 5.1393-2.8123 6.5755-11.962 17.664-8.1936 9.9295-13.277 18.096-16.708 26.842-2.2583 5.7571-3.2333 10.321-3.4972 16.37-0.37127 8.5099-2.186 14.614-7.2452 24.37-4.4958 8.6697-9.5809 15.824-14.763 20.77-4.833 4.613-9.264 7.6934-22.43 15.593-9.4474 5.6685-11.94 7.3106-15.214 10.023-4.1034 3.3995-7.1963 7.5285-8.529 11.386-0.8722 2.5247-0.83074 5.7037 0.10022 7.684 2.0657 4.3943 5.3294 6.5051 14.985 9.6915 7.1534 2.3607 9.8069 3.6142 12.101 5.7163 2.437 2.2331 3.4083 3.7006 5.6214 8.4938 2.6744 5.7922 4.5308 8.2615 8.3796 11.146 2.8136 2.1088 7.5496 3.9893 11.66 4.6296 2.2012 0.34293 11.081 0.11666 14.329-0.36512zm-153.9-34.046c2.276-0.34427 3.9416-0.8958 6.3744-2.1107 2.6714-1.334 3.4936-2.0722 4.4582-4.0025 1.4598-2.9213 1.012-6.2181-1.3054-9.6108-1.1701-1.713-4.6754-5.1801-7.0164-6.9401-3.6631-2.7538-8.6602-4.8275-11.633-4.8275-2.751 0-5.5941 1.7079-6.7219 4.0379-1.8244 3.7692-0.8727 15.459 1.5683 19.263 1.0682 1.6646 2.6373 3.0638 4.1753 3.7231 2.1604 0.92604 5.9188 1.0999 10.101 0.46733zm-297.56-201.65c0.41265-1.5398-0.0285-7.034-0.77543-9.6573-0.47056-1.6527-1.0659-1.8402-1.3323-0.41976-0.34318 1.8293 0.27066 8.2199 0.96497 10.046 0.30143 0.79282 0.93405 0.81 1.1428 0.03104zm126.36-1.5087c3.9872-0.83338 6.9521-2.4375 12.183-6.5914 2.7299-2.1679 11.502-10.276 14.717-13.603 3.6984-3.827 5.5233-6.4304 7.7485-11.054 2.0309-4.2201 3.2857-8.0994 5.173-15.993 3.773-15.78 4.5481-18.314 8.6576-28.31 6.7454-16.408 8.6815-23.843 8.6815-33.338 0-6.8098-1.0592-11.959-3.3611-16.339-2.0163-3.8371-4.5246-5.7319-9.2717-7.004-2.3088-0.61864-3.0825-0.69373-7.3432-0.7126-6.5264-0.0289-8.5663 0.46014-22.225 5.3282-9.5764 3.4131-17.343 5.0514-22.49 4.7435-4.6585-0.27866-8.1607-1.4428-11.152-3.7067-5.6591-4.2833-6.8274-6.8423-7.5119-16.455-0.32073-4.5038 0.0319-17.747 0.68079-25.565 0.43417-5.2314 0.52067-16.645 0.1413-18.645-0.72605-3.8284-2.2023-5.8713-6.3868-8.8382-3.31-2.3469-4.7674-4.1201-6.0776-7.3948-1.2156-3.0383-1.335-3.9093-1.5852-11.564-0.2725-8.3386-0.56874-10.345-1.8959-12.839-0.97046-1.824-5.2332-6.4749-6.144-6.7035-0.90169-0.22631-1.9252 0.30242-4.0918 2.1138-3.358 2.8074-7.1911 7.0812-9.7483 10.869-2.4515 3.6313-5.7902 11.224-8.5512 19.447-2.4395 7.2652-3.7158 10.292-8.59 20.373-1.935 4.0018-3.9485 8.3172-4.4746 9.5896-1.6818 4.0681-4.3061 12.835-6.6339 22.16-1.634 6.5461-3.6872 13.327-7.5307 24.871-2.7033 8.1192-5.6119 19.587-6.5091 25.665-0.57425 3.8896-0.80401 13.346-0.39276 16.166 0.49244 3.3767 2.3055 10.303 3.3135 12.658 2.8828 6.7354 5.178 7.3783 11.386 3.1895 3.2832-2.2155 4.9461-2.6489 6.6942-1.745 1.2945 0.66939 2.1154 1.8995 4.4218 6.626 1.2112 2.4821 2.7326 5.1765 3.3809 5.9876 3.0434 3.8078 6.6215 4.6528 15.002 3.5425 5.1417-0.68111 9.8678-0.10509 13.27 1.6173 2.1077 1.0671 4.9246 4.0489 6.2298 6.5946 2.1037 4.1028 2.8892 6.9433 4.9758 17.992 2.0977 11.107 3.3045 14.133 7.7082 19.323 4.0676 4.7947 8.6808 7.1928 15.487 8.0509 2.9088 0.36674 9.1929 0.10396 12.114-0.50657zm529.86-125.9c1.3738-0.70771 2.5362-1.9745 3.447-3.7567 0.69868-1.367 0.7498-1.6957 0.84362-5.424 0.0739-2.9373-0.0434-5.1179-0.45135-8.3906-0.90173-7.2342-0.65953-10.481 0.98158-13.158 0.97364-1.5885 2.4474-2.2978 6.1538-2.962 4.2085-0.7542 5.8219-1.6369 6.9251-3.789 0.45334-0.88424 0.51562-1.3802 0.39889-3.175-0.17047-2.6207-1.1374-5.3638-3.395-9.6317-1.9679-3.7202-6.8202-11.498-8.9083-14.279-3.5335-4.7058-10.816-11.315-18.647-16.923-5.7557-4.1217-10.246-7.965-15.94-13.644-8.7515-8.7289-9.9914-9.0958-11.393-3.3719-0.37047 1.5129-0.88911 3.1797-1.1525 3.7042s-0.84034 1.6679-1.2821 2.541c-0.70329 1.3901-2.8724 8.002-4.9043 14.949-2.2863 7.8171-3.1298 15.834-2.1599 20.529 1.5653 7.5782 6.101 15.711 16.66 29.874 10.292 13.804 20.716 24.722 25.413 26.615 2.773 1.118 5.5914 1.2292 7.4097 0.29255zm-410.93-46.11c2.7766-0.51328 10.66-4.1778 16.07-7.4703 3.22-1.9595 6.1509-4.1347 8.7613-6.5025 0.98933-0.89734 5.097-4.4424 9.1281-7.878 8.3394-7.1073 15.711-14.345 20.033-19.669 1.5947-1.9645 4.2769-5.0006 5.9604-6.7469 1.9751-2.0487 4.3148-4.9114 6.5957-8.0698 1.9441-2.6921 4.6258-6.3235 5.9593-8.0698 3.5877-4.6982 5.1363-7.0189 7.2823-10.913 2.3758-4.3111 3.8756-6.2168 6.0346-7.668 2.6958-1.812 5.5396-2.506 14.363-3.5051 2.5627-0.29016 5.4858-0.70142 6.496-0.9139 5.7603-1.2117 9.7728-3.6828 13.108-8.0724 1.7274-2.2735 4.7495-8.3981 5.4801-11.106 1.385-5.1329 1.6767-11.198 0.80896-16.824-0.99819-6.4718-2.2349-10.226-4.2506-12.903-1.2742-1.6924-2.3662-2.7069-9.3565-8.692-6.2723-5.3703-7.1937-6.3752-14.662-15.991-3.6308-4.6749-6.0362-6.9334-8.8714-8.3298-3.3587-1.6541-6.6725-2.3896-11.536-2.5604-6.679-0.23451-12.705 0.54104-22.137 2.8489-6.9782 1.7076-10.805 2.8814-15.17 4.6538-8.6119 3.4968-12.235 6.211-18.639 13.965-6.2069 7.5144-9.3713 10.081-18.138 14.714-2.5466 1.3458-6.8329 3.6686-9.525 5.1619-11.836 6.5654-24.187 12.84-37.703 19.154-10.294 4.8088-13.671 6.8994-17.198 10.646-4.4538 4.7307-7.3209 12.294-6.5135 17.183 0.50059 3.0312 1.4044 4.4243 4.6886 7.2265 2.139 1.8251 3.5762 3.5021 6.5923 7.692 2.7688 3.8464 6.4902 7.6434 11.501 11.735 5.0858 4.1526 9.4031 8.3042 12.246 11.775 5.0886 6.2143 7.8801 9.5011 10.831 12.752 1.7242 1.8999 3.66 4.1564 4.3019 5.0144 3.1286 4.1828 4.7863 8.3543 5.8377 14.69 0.8055 4.8543 1.2965 6.8601 2.0323 8.3024 1.2475 2.4454 2.5952 3.5917 4.9718 4.2291 1.7889 0.47977 2.6415 0.50576 4.6161 0.14074zm302.87-165.72c1.1115-0.19824 3.195-0.86419 4.6302-1.4799 3.4292-1.4712 5.4915-2.1678 10.282-3.4734 6.4753-1.7646 7.6872-2.6689 7.4521-5.5603-0.19905-2.4478-1.4049-4.3817-4.9275-7.9024-3.9988-3.9967-7.4429-6.5692-16.283-12.162-5.2405-3.3156-13.234-6.9034-23.548-10.569-7.9401-2.8217-14-5.9817-19.964-10.41-11.025-8.1863-20.57-12.761-32.67-15.659-5.8997-1.4129-12.407-2.7299-16.422-3.3235-7.7408-1.1446-21.818-3.4838-24.739-4.1107-1.6735-0.35928-4.6223-1.1268-6.5529-1.7055-6.5094-1.9514-11.49-2.643-18.994-2.6375-5.216 4e-3 -19.727 1.8296-23.533 2.9609-2.5136 0.74717-4.9181 1.8609-5.5451 2.5686-1.1386 1.2849 0.25654 2.0687 8.3233 4.6758 8.5342 2.7582 13.903 5.068 22.357 9.6186 4.2126 2.2675 7.4669 3.3679 17.198 5.8155 4.0746 1.0248 8.8631 2.3431 10.641 2.9295 7.5912 2.5034 15.192 6.6466 23.622 12.876 8.6982 6.4277 14.137 9.4863 30.295 17.036 7.5749 3.5393 11.99 5.7647 17.859 9.0014 12.859 7.0913 17.292 8.8106 26.858 10.417 9.3674 1.5727 10.481 1.6619 13.66 1.0949z" fill="#a98f7f" stroke-width=".26458"/> <path d="m298.38 279.4c-11.123-2.7558-30.012-8.8422-42.766-13.781-10.71-4.1466-12.922-5.1955-8.7828-4.163 0.8485 0.21164 3.0069 0.57081 4.7965 0.79817 3.819 0.48514 4.2991 0.59214 10.359 2.3086 2.5394 0.71929 8.0759 2.188 12.303 3.2639 16.218 4.1275 19.547 5.1668 20.523 6.4069 0.66646 0.84727 0.65868 1.0808-0.0616 1.8475-0.83616 0.89003-0.43198 1.3635 2.0064 2.3503 1.1196 0.45309 2.1114 0.89958 2.204 0.99218 0.0926 0.0926 0.11877 0.1546 0.0582 0.13772-0.0607-0.0169-0.34838-0.0897-0.63942-0.16179zm242.62-43.22c-1.8918-0.42238-5.0242-1.1305-6.961-1.5735-1.9368-0.44304-5.7712-1.161-8.5211-1.5954-7.7894-1.2306-10.838-2.2761-12.648-4.3369-1.8454-2.1018-1.7467-4.8674 0.32168-9.0103 1.9191-3.844 5.7183-7.8032 12.138-12.649 4.5983-3.4712 8.775-5.631 19.639-10.156 8.3037-3.4585 14.639-6.8729 20.033-10.797 4.5153-3.2849 10.716-10.163 16.071-17.826 6.3773-9.126 10.434-13.269 19.436-19.851 4.1855-3.0604 8.0931-5.5752 11.407-7.3411 4.9344-2.6293 7.1271-5.828 9.5064-13.868 2.2648-7.653 4.1221-12.041 6.904-16.311 4.4206-6.7854 8.0826-10.287 18.733-17.914 12.462-8.9242 17.015-13.367 22.518-21.974 3.5179-5.5022 6.0576-11.188 9.5174-21.306 4.4274-12.948 6.7034-16.581 16.337-26.077 7.8974-7.7843 13.442-12.399 17.004-14.153 2.1112-1.0393 4.2402-1.1823 5.3515-0.35928 1.5473 1.1459 1.724 1.6674 4.2039 12.411 0.53745 2.3283 1.3122 5.145 1.7215 6.2592 1.4296 3.8909 3.4827 7.3844 5.2322 8.9032 1.6735 1.4527 4.5326 2.4291 7.1322 2.4356 0.68406 0.0026 1.8986 0.17891 2.699 0.39373 0.80036 0.21482 2.0246 0.39201 2.7205 0.39373 3.2347 0.0079 4.9032-1.6894 10.926-11.116 1.7178-2.6885 4.1095-6.2144 5.315-7.8354 3.4161-4.5936 5.6946-5.7409 6.8735-3.461 1.6401 3.1716 0.5102 10.062-3.7744 23.016-1.5291 4.6233-3.0843 9.0881-3.4561 9.9219-0.37177 0.83376-1.7832 4.1353-3.1365 7.3368-3.8516 9.1115-4.059 9.566-8.3907 18.389-2.2506 4.5839-5.615 11.013-7.4765 14.288-1.8614 3.2742-3.8868 6.8461-4.5007 7.9375-0.61394 1.0914-2.4933 4.2466-4.1763 7.0115-1.683 2.7649-3.8061 6.2772-4.7181 7.8052-1.7967 3.0103-5.3102 8.2866-7.4882 11.245-5.1024 6.9305-7.1247 9.4992-10.519 13.361-5.684 6.4673-10.968 11.425-19.925 18.696-5.8668 4.7622-10.728 8.3216-15.065 11.03-6.2892 3.9279-8.2854 3.9212-7.6935-0.0257 0.61947-4.1308 6.1993-16.981 9.6218-22.159 2.9159-4.4114 6.9895-8.481 14.724-14.709 9.1947-7.4041 12.096-10.336 15.816-15.983 3.3233-5.044 4.8806-9.173 5.1393-13.626 0.19158-3.2977-0.16817-4.8972-1.8541-8.2437-1.6845-3.3437-2.7201-4.2249-5.1738-4.4024-3.425-0.24773-7.0401 1.5653-14.492 7.2683-6.8526 5.244-10.976 7.0064-17.505 7.483-2.772 0.2023-3.5066 0.356-4.9661 1.039-5.2348 2.4496-11.848 10.17-16.003 18.684-2.6469 5.423-2.8428 7.16-1.5564 13.801 0.7348 3.7935 0.80078 4.5535 0.69683 8.0267-0.0723 2.4148-0.27514 4.4055-0.54745 5.3721-1.7962 6.376-5.8229 13.106-15.703 26.246-9.4254 12.535-14.982 18.979-20.991 24.343-11.403 10.18-19.347 16.46-26.444 20.907-10.748 6.7349-18.519 10.604-27.033 13.458-6.5823 2.2069-11.085 2.5241-17.02 1.1991zm-107.85-0.10739c-4.5957-0.41344-8.205-1.0672-14.725-2.6671-9.8499-2.4169-17.589-6.208-20.423-10.005-2.0037-2.6844-2.2619-3.428-2.2619-6.5147 0-2.6625 0.0378-2.8478 0.90753-4.452 1.7098-3.1536 5.6578-6.0348 9.6652-7.0534 3.277-0.83298 7.3893-0.35851 10.53 1.215 1.9554 0.97954 3.0982 1.8768 6.8102 5.347 3.2701 3.0572 6.404 5.2587 8.5583 6.0123 0.85071 0.29758 2.8748 0.72271 4.4979 0.94475 6.0779 0.83148 10.366 2.4192 12.898 4.7755 3.185 2.9643 3.488 6.8777 0.71435 9.2287-1.3731 1.1639-4.3845 2.4269-6.8305 2.8648-3.3962 0.60798-6.0845 0.68701-10.342 0.30406zm-304.05-72.745c-4.1684-1.7141-11.528-7.1624-19.505-14.44-3.9815-3.6324-5.0594-4.4975-5.6039-4.4975-0.26485 0-0.48155 0.0668-0.48155 0.14851 0 0.0817 0.71539 1.982 1.5898 4.2229 1.9961 5.1159 2.3153 6.4111 1.8542 7.5243-0.99484 2.4018-3.1272 1.621-8.5441-3.1284-3.2598-2.8581-3.6301-3.2856-10.687-12.339-31.304-40.158-54.767-86.885-68.459-136.34-2.3483-8.4813-6.1138-24.381-5.9152-24.977 0.11026-0.33078 2.4696 7.0361 3.7446 11.693 0.49809 1.819 1.4457 5.0932 2.1057 7.276 0.66005 2.1828 1.7533 6.0523 2.4294 8.599 2.0982 7.9027 2.3846 8.9073 4.8569 17.036 3.1061 10.213 6.8913 20.272 10.384 27.597 2.1379 4.4829 7.4537 13.858 10.248 18.074 5.895 8.8941 15.32 18.608 17.312 17.844 1.0256-0.39359 1.2235-3.1604 0.67262-9.4044-0.24131-2.7351-0.24533-4.3229-0.0168-6.6146 0.47209-4.7335 0.7477-5.2898 4.169-8.4145 1.1384-1.0397 2.4185-3.6733 3.4461-7.0897 1.3757-4.5736 2.0514-6.5764 2.561-7.5912 0.74996-1.4933 2.7166-3.489 4.0964-4.1569 1.4092-0.68218 3.9086-0.7864 6.1613-0.25694 1.7315 0.40698 9.2685 4.2424 12.417 6.3188 3.6091 2.3801 7.2068 6.2448 10.762 11.56 5.0672 7.5772 14.767 26.515 17.437 34.043 1.8255 5.1475 6.1675 13.551 10.715 20.738 5.0201 7.934 6.8675 11.31 7.568 13.829 0.54763 1.9697 0.3431 3.2092-0.70201 4.2543-0.80831 0.8083-0.85867 0.82325-5.941 1.7626-6.3471 1.173-8.8635 3.8805-8.8635 9.5363 0 4.8027 0.57268 7.456 2.5526 11.826 1.5471 3.4151 1.9419 4.9774 1.4174 5.6094-0.48044 0.57888-2.0217 0.47972-3.7797-0.24323zm226.56-113.39c-10.408-1.9034-18.179-6.4717-20.041-11.782-0.70054-1.9972-0.55671-5.2967 0.43833-10.054 1.0756-5.1424 1.2618-7.8647 0.71512-10.451-1.2143-5.7445-4.7165-9.6262-15.905-17.628-6.0594-4.3338-8.3619-5.597-16.854-9.2468-11.723-5.0381-13.971-6.9435-15.196-12.876-0.48205-2.3347-0.94409-3.6349-2.2005-6.1923-4.945-10.065-20.022-28.772-27.899-34.616-6.9122-5.128-14.27-8.7729-27.544-13.644-7.58-2.7817-12.277-5.5228-16.27-9.495-4.5924-4.5688-7.4407-10.082-9.0322-17.481-0.50831-2.3634-0.5987-3.5879-0.60543-8.2021-9e-3 -5.9307 0.30223-8.348 1.7253-13.416 3.0696-10.932 10.614-23.265 18.715-30.593 5.041-4.5603 9.9507-7.1694 19.754-10.498 7.5501-2.5632 9.9812-3.7515 12.171-5.9493 2.9443-2.9552 3.8002-5.4767 3.9969-11.775 0.075-2.4011 0.26261-4.9609 0.41691-5.6885 0.38181-1.8004 1.6894-4.2103 2.8258-5.2081 3.0492-2.6773 7.8694-3.0337 11.612-0.85862 0.69117 0.40171 2.6595 2.1844 4.374 3.9615 3.5919 3.7231 4.995 4.6097 8.377 5.2938 6.8846 1.3926 18.246-2.0193 24.523-7.3642 3.8538-3.2819 5.6878-6.2948 8.1682-13.419 4.4365-12.743 7.8316-16.975 21.02-26.203 12.779-8.9414 15.706-13.016 23.157-32.242 1.3837-3.5702 2.5718-5.9837 4.0561-8.2394 2.8674-4.3576 4.8016-5.9076 14.842-11.894 9.0874-5.4178 12.03-7.4784 15.109-10.581 4.2289-4.2611 6.2731-8.5105 7.5537-15.702 1.1597-6.5128 1.4257-7.4986 4.7951-17.773 4.9586-15.12 5.578-17.923 5.2918-23.945-0.2114-4.4472-0.68927-6.9082-2.715-13.982-0.94411-3.2968-2.3-8.3159-3.013-11.154-2.0039-7.9744-3.5169-11.793-6.1739-15.581-0.65209-0.92975-3.3709-4.1307-6.0418-7.1133s-5.3612-6.0914-5.9785-6.9085c-0.61725-0.81711-2.2492-3.7478-3.6267-6.5127-2.8472-5.7153-4.704-8.3689-9.2882-13.274-4.3549-4.6601-9.3878-10.628-9.8049-11.626-1.1316-2.7084 0.46366-4.7724 5.4798-7.09 5.7812-2.6711 15.79-3.8456 28.436-3.337 11.975 0.48161 20.764 1.753 28.677 4.1482 7.1669 2.1694 13.016 6.0893 15.212 10.194 1.9577 3.6599 3.8706 5.0217 14.167 10.085 9.9717 4.9037 12.857 6.5384 21.214 12.02 3.976 2.608 9.2531 5.975 11.727 7.4822 6.4844 3.9507 8.5636 5.324 17.859 11.795 10.271 7.1503 12.083 8.313 15.454 9.9188 4.7976 2.2852 9.0915 3.1484 15.711 3.1582 5.871 9e-3 12.046 1.0114 17.737 2.88 9.3797 3.08 15.074 7.7379 17.571 14.373 0.74777 1.9868 0.82566 2.4821 0.84362 5.3639 0.0323 5.1735-0.94413 7.2666-6.0354 12.938-3.4842 3.8811-4.2416 5.3716-5.702 11.222-1.1985 4.8006-2.1077 7.3414-3.5503 9.9211-1.8725 3.3484-5.049 6.1723-8.9922 7.9942-3.6416 1.6825-5.7499 2.0085-18.034 2.7885-8.8388 0.56122-13.493 2.0366-18.184 5.764-5.0421 4.0068-13.907 15.321-18.792 23.985-4.8026 8.5171-5.9433 17.073-3.1096 23.322 2.1728 4.792 9.566 11.443 15.083 13.569 3.6989 1.4255 8.8444 2.1026 16.147 2.125 5.8006 0.0178 9.8199 0.81422 13.717 2.7181 6.4964 3.1738 12.486 9.8447 19.107 21.28 2.4887 4.2985 3.655 5.8709 4.8928 6.5963 0.67223 0.39397 2.5492 0.95843 4.7768 1.4366 4.5814 0.98341 5.9712 1.3735 8.9612 2.5152 5.6602 2.1614 10.258 5.8442 12.162 9.7407 0.79494 1.6274 1.0839 3.1522 1.4521 7.6611 0.86241 10.562-0.30435 14.382-4.4845 14.685-2.608 0.18865-7.1892-1.3242-11.267-3.7206-3.1776-1.8675-7.0574-5.701-8.2468-8.1483-1.0697-2.201-1.6451-4.6375-1.6526-6.9975-0.0119-3.7168-1.378-9.1894-2.886-11.561-0.99539-1.5654-1.9503-2.0651-3.9463-2.0651-1.2623 0-1.9264 0.18073-3.4325 0.93421-2.0563 1.0287-3.1234 2.082-4.2235 4.1688-0.65968 1.2514-0.7271 1.6375-0.7271 4.1646v2.7853l1.4183 2.771c0.78005 1.524 2.2984 4.2807 3.3741 6.126 3.648 6.2579 4.4549 9.0549 4.2606 14.769-0.395 11.618-6.3262 22.66-14.387 26.783-4.0376 2.0652-7.3014 2.8905-13.387 3.3852-5.6011 0.45524-11.3-0.31319-22.585-3.0453-6.917-1.6746-9.1437-2.05-12.14-2.0468-3.1326 3e-3 -5.1449 0.55142-8.6558 2.3571-3.3658 1.731-9.0556 5.5428-12.117 8.1172-3.6115 3.0374-5.0562 3.6128-9.5222 3.7929-3.6002 0.14517-7.8034-0.31097-16.272-1.7659-13.041-2.2405-18.814-2.4796-25.399-1.0521-9.5308 2.0664-14.687 6.31-18.095 14.893-2.6345 6.635-3.3078 10.675-3.3142 19.887-4e-3 6.0019 0.087 7.5696 0.71519 12.293 0.39598 2.9778 0.78409 6.9663 0.86244 8.8635 0.19825 4.8007 0.48286 6.7328 2.1061 14.297 3.4266 15.969 4.5486 29.376 3.1706 37.888-0.93035 5.7471-3.4637 10.316-8.4796 15.293-2.8677 2.8455-5.6245 4.8376-12.686 9.1671-6.2615 3.8391-9.5673 6.0101-11.377 7.4717-5.4998 4.4416-7.276 7.4489-7.276 12.319 0 2.9633 0.55983 5.1281 2.7064 10.465 2.3731 5.9007 2.6924 7.134 2.7061 10.451 0.0101 2.4558-0.0917 3.0932-0.8777 5.4944-1.8316 5.5953-4.8037 8.5043-10.223 10.006-2.5157 0.69728-9.5797 0.76054-13.097 0.11732zm-204.79-7.3722c-2.9061-1.5298-3.8694-6.544-2.5244-13.141 0.74225-3.6406 1.8559-5.5099 5.6197-9.4328 3.1984-3.3336 3.3732-3.576 4.9976-6.9327 1.1173-2.3087 2.5231-6.0137 4.1811-11.019 1.3738-4.1473 3.3282-9.6838 4.3431-12.303 2.9017-7.4891 3.2247-8.6926 3.5137-13.093 0.55648-8.4712 1.6433-11.68 4.296-12.685 0.57647-0.21841 0.91924-0.18992 1.5331 0.1275 1.5425 0.79769 2.3601 2.8647 3.0166 7.6271 1.0987 7.9696 1.5906 9.3897 5.4192 15.644 7.4343 12.145 8.5056 14.06 10.024 17.925 1.2907 3.2846 1.6936 5.4504 1.5756 8.4712-0.0882 2.2572-0.22723 2.9703-0.83739 4.2941-1.2793 2.7757-3.3424 4.4103-6.5248 5.1695-1.9778 0.47183-7.113 0.41413-12.568-0.14123-12.285-1.2508-14.989 0.42159-18.099 11.196-1.237 4.2855-1.9693 5.8915-3.2428 7.1116-0.91285 0.87458-2.4942 1.6671-3.3266 1.6671-0.2616 0-0.8905-0.21839-1.3976-0.48527zm-137.82-63.963c0.0127-0.30824 0.0754-0.37092 0.15985-0.15986 0.0764 0.191 0.067 0.41921-0.0209 0.50713-0.0879 0.08792-0.15045-0.06837-0.13896-0.34726zm55.176-26.069c-1.6952-0.39796-4.0771-1.8248-5.6171-3.3648-2.592-2.592-4.2089-6.91-4.525-12.084-0.45556-7.4578 2.9874-12.624 9.0526-13.584 4.0002-0.63312 7.5314 1.1054 9.4664 4.6606 0.39217 0.72054 1.0411 2.4875 1.4421 3.9266 0.67178 2.4111 0.72798 2.98 0.71575 7.2467-0.0123 4.2847-0.0657 4.7882-0.71624 6.7469-0.88208 2.6559-1.9078 4.2848-3.3071 5.252-2.0358 1.407-4.05 1.7784-6.5114 1.2006zm671.22-23.742c-2.1818-1.3357-4.1337-4.5385-5.5486-9.1043-1.2571-4.0566-1.6375-4.8861-5.3198-11.601-7.9917-14.573-11.68-24.537-12.552-33.908-0.86937-9.342 2.4065-18.286 9.044-24.692 2.6604-2.5676 3.9016-3.2381 6.882-3.7179 1.3463-0.21672 3.3365-0.63783 4.4227-0.93586 4.8037-1.3179 7.48 0.34264 9.1692 5.689 0.86321 2.7319 1.8616 8.2114 2.354 12.918 0.83389 7.9729 0.51295 28.804-0.64955 42.16-0.27866 3.2015-0.63297 7.6068-0.78738 9.7896-0.38298 5.4147-0.92112 8.3812-1.91 10.529-1.4042 3.0497-3.182 4.0506-5.1042 2.8738zm-733.97-42.507c0.19504-14.501 2.3834-35.686 5.549-53.719 2.5445-14.495 6.2658-30.582 9.0563-39.15 1.0693-3.2832 2.9605-7.4971 3.5998-8.0207 0.94659-0.77531 1.0543 0.35324 1.0534 11.039-1e-3 14.388-0.43366 18.593-2.9589 28.769-1.6396 6.6069-2.3419 8.741-5.4231 16.478-4.3566 10.94-5.2331 13.929-6.0978 20.79-0.23841 1.8918-1.1367 7.0114-1.9961 11.377-0.94639 4.8071-1.8222 10.233-2.2207 13.758l-0.65802 5.8208zm663 2.755c-2.48-0.73385-3.9227-5.3901-4.2298-13.652-0.37531-10.095 1.6142-14.626 6.4269-14.634 1.452-3e-3 4.8471 1.0155 6.8026 2.04 2.5297 1.3253 5.4798 4.2108 6.4592 6.3177 1.0534 2.2661 1.1535 5.1389 0.26403 7.5798-0.97026 2.6626-2.2006 4.5433-4.5538 6.9612-3.8761 3.9826-8.4538 6.1906-11.169 5.3872zm80.551-70.049c-1.174-0.77409-1.9812-2.0291-4.1116-6.3923-3.5435-7.2575-4.8626-9.0518-7.9052-10.753-1.5359-0.85894-1.9127-0.94988-4.739-1.1438-3.6248-0.24879-4.0602-0.47847-5.3202-2.8066-0.98039-1.8115-1.6237-4.3617-2.598-10.299-0.86196-5.2527-1.4369-7.7504-2.6626-11.567-4.1956-13.063-10.076-22.798-27.155-44.956-7.8299-10.158-15.019-20.639-21.392-31.187-2.9709-4.917-8.0204-12.465-11.859-17.727-4.3119-5.9111-5.8838-8.6728-7.7558-13.626-2.0676-5.4709-2.7122-7.5285-4.0581-12.955-2.3853-9.6163-6.0587-18.544-13.994-34.009-2.9493-5.7481-5.5719-11.088-5.828-11.866-0.67443-2.0493-0.46001-3.9228 0.75536-6.6008 1.7057-3.7584 1.591-5.5078-0.6077-9.2725-1.4226-2.4359-3.2738-4.4244-5.6368-6.0548-3.5714-2.4642-13.53-8.3415-18.861-11.132-10.721-5.6102-16.331-8.9283-20.943-12.386-7.8572-5.8904-9.3667-8.5841-5.1846-9.2516 1.2064-0.19257 1.3573-0.38303 0.7212-0.91091-0.70289-0.58336-0.21743-0.58132 0.92972 4e-3 0.60878 0.31058 4.6982 2.5969 9.0876 5.0807 13.414 7.5902 24.9 15.074 31.396 20.457 2.4011 1.9893 5.08 4.1688 5.9531 4.8433 0.87313 0.67446 3.3734 2.7173 5.5562 4.5396s5.6928 4.623 7.7999 6.2237c4.38 3.3274 5.8405 4.6411 12.925 11.626 6.5322 6.4408 13.073 13.852 16.242 18.404 1.4993 2.1535 3.3825 5.591 3.3825 6.1741 0 0.70552-0.52298 0.53217-3.1826-1.0549-5.9642-3.559-11.559-5.7896-13.138-5.2376-1.8596 0.65001-0.47934 3.4088 4.2953 8.5851 1.4094 1.528 3.1738 3.4777 3.9208 4.3328 1.2201 1.3966 6.347 6.1959 16.817 15.743 5.554 5.0642 7.2452 6.7626 10.571 10.616 5.3799 6.234 9.1579 11.075 12.736 16.318 0.21609 0.31667 1.9567 2.7574 3.8682 5.424 4.7867 6.6777 12.345 18.161 13.354 20.288 2.0681 4.3612 2.5981 6.5053 3.4197 13.834 0.63838 5.6944 1.2941 9.12 2.4164 12.623 1.0021 3.1285 1.7577 4.8449 6.8307 15.517 2.2135 4.6567 4.95 10.61 6.081 13.229 1.131 2.6194 3.0129 6.9056 4.182 9.525 4.1753 9.3548 7.635 18.824 8.6965 23.804 0.57309 2.6882 0.69879 4.0894 0.80778 9.0045 0.11427 5.1539 0.0684 6.0937-0.40013 8.2021-0.73269 3.2971-1.522 5.2666-2.5459 6.3522-0.98583 1.0453-1.7626 1.1638-2.8648 0.43701zm-600.45-52.658c-3.0111-1.0404-5.2892-3.5818-5.9188-6.6026-0.70227-3.3699 0.16085-8.5613 2.0457-12.304 4.6561-9.246 13.471-15.608 21.653-15.626 2.0455-5e-3 2.6095 0.0982 3.9998 0.72949 3.0023 1.3632 4.5845 3.6155 5.1657 7.3536 0.256 1.6466 0.23083 2.3999-0.15797 4.7272-0.98166 5.8762-2.8441 9.7328-6.6085 13.685-6.0827 6.3854-14.852 9.8786-20.179 8.0381zm53.465-151.8c-3.1166-0.4239-6.2961-1.3743-13.989-4.1816-6.7472-2.4622-8.4721-3.242-9.2713-4.1918-1.0231-1.2158-1.0395-1.6861-0.12361-3.5464 1.5222-3.0921 7.3809-8.332 13.155-11.765 3.7532-2.2318 13.281-6.971 15.29-7.6054 1.0186-0.32164 4.1738-1.0537 7.0115-1.6268 7.9279-1.6012 16.026-4.3104 21.885-7.3212 4.0398-2.0762 9.9584-6.0655 11.982-8.0762 1.0462-1.0396 2.1343-2.4783 2.7781-3.6733 3.5166-6.527 14.413-13.109 30.439-18.386 9.6239-3.1691 14.752-3.7529 25.165-2.8646 5.6072 0.47838 8.6695 0.38913 13.585-0.39594 4.9806-0.79543 6.9689-0.90246 10.428-0.56135 3.7568 0.37051 6.3777 1.0051 9.2116 2.2303 4.318 1.8669 7.1674 4.1288 8.0229 6.3691 0.38685 1.013 0.41183 1.3786 0.15312 2.2422-0.60759 2.028-4.0802 4.291-9.9559 6.4881-4.531 1.6943-14.2 4.3226-19.517 5.3054-11.717 2.1658-20.173 5.1835-41.47 14.799-5.4305 2.452-10.843 4.7786-19.844 8.5297-9.0654 3.7782-14.363 7.2639-23.283 15.32-6.0886 5.4989-9.1474 7.7082-13.891 10.033-6.0476 2.9638-11.108 3.7841-17.761 2.8791zm358.81-69.883c-3.5968-1.5198-14.074-5.528-18.521-7.0856-2.6194-0.91742-6.5484-2.3498-8.7312-3.183s-6.7072-2.4965-10.054-3.6962c-6.2616-2.2444-16.591-6.254-16.457-6.388 0.40079-0.4008 20.852 6.4475 31.141 10.428 7.1135 2.7519 22.484 9.3157 24.342 10.395 0.76335 0.44342-0.14579 0.19482-1.7198-0.47027z" fill="#a0806c" stroke-width=".26458"/> <path transform="matrix(.26458 0 0 .26458 0 -496.75)" d="m1489.7 17.318c-349.03 2.6315-688.3 128.4-956.45 358.79-336.06 288.73-525.93 714.56-515.86 1156.9 8.4307 370.54 154.71 723.98 410.37 991.57 63.896 66.876 140.33 132.63 217.56 187.16 16.166 11.414 34.118 23.763 39.893 27.443 5.775 3.68 19.5 12.443 30.5 19.475 48.285 30.864 126.64 72.304 188.51 99.697 104.85 46.419 227.55 83.408 341.45 102.93 41.171 7.0565 87.95 12.961 131.35 16.774 25.287 2.0733 50.411 3.4696 75.226 4.1386 6.3191 0.1704 7.9815 0.2205 13.404 0.3692 10.349 0.0811 21.953 0.1112 34.117 0.0801-299.13-56.107-571.59-235.84-768.6-507.1-197.5-271.94-306.22-618-306.6-975.97 0.14098-357.03 108.06-702.35 304.45-974.18 194.92-269.8 464.38-449.69 760.76-508.13-0.028 2.1e-4 -0.056-2.11e-4 -0.084 0z" fill-opacity=".31373"/> </g> </svg>